<svg xmlns="http://www.w3.org/2000/svg" xmlns:xlink="http://www.w3.org/1999/xlink" x="0" y="0" viewBox="0 0 390.99 18.95"><defs><linearGradient id="未命名的渐变_14" x1="368.52" y1="15.96" x2="379.03" y2="15.96" gradientTransform="translate(-9.24 -9.1)" gradientUnits="userSpaceOnUse"><stop offset="0" stop-color="#22b886"/><stop offset="0.3" stop-color="#91ceba"/><stop offset="0.5" stop-color="#dbdcdc"/><stop offset="1" stop-color="#c62d2e"/></linearGradient></defs><title>new_legend</title><g id="图层_2" data-name="图层 2"><g id="图层_1-2" data-name="图层 1"><path class="cls-1" d="M162.09,4.81h1.23c11,0,7.7-.61,18.74-.61h1.48V6.59h-1.48c-11,0-7.7-.81-18.74-.81h-1.23Z"/><path class="cls-2" d="M162.09,13h1.23c11,0,7.7-.36,18.74-.36h1.48v2.14h-1.48c-11,0-7.7-.81-18.74-.81h-1.23Z"/><text class="cls-3" transform="translate(185.55 6.99)">pos. influence</text><text class="cls-3" transform="translate(185.55 15.29)">neg. influence</text><path class="cls-4" d="M183.4,13.86c-14.73,0-6.64-.34-21.49-.34"/><path class="cls-5" d="M183.56,5.56c-14.72,0-6.64-.34-21.49-.34"/><line class="cls-6" x1="60.58" y1="7.82" x2="104.11" y2="7.82"/><rect class="cls-7" x="115.34" y="8.49" width="8.4" height="2.51"/><text class="cls-8" transform="translate(117.83 6.15)">1</text><text class="cls-8" transform="translate(125.56 11)">7</text><text class="cls-8" transform="translate(118.76 16.69)">2</text><text class="cls-9" transform="translate(133.52 5.88)">high </text><text class="cls-9" transform="translate(133.52 11.3)">medium </text><text class="cls-9" transform="translate(133.52 16.9)">low </text><text class="cls-9" transform="translate(40.05 8.12)">weight</text><line class="cls-10" x1="59.9" y1="11.1" x2="59.9" y2="2.99"/><path class="cls-11" d="M59.9,3.3l-.62.38v0l.4-1c.08-.36.15-.71.23-1.06.08.35.15.7.23,1.06l.4,1v0Z"/><text class="cls-9" transform="translate(62.67 15.98)">1-d t-SNE </text><line class="cls-10" x1="59.86" y1="10.95" x2="105.16" y2="11.03"/><path class="cls-11" d="M104.85,11l-.37-.62h0l1,.4,1.06.24-1.06.23-1,.4h0Z"/><rect class="cls-12" x="258.83" y="3.72" height="2.25"/><text class="cls-13" transform="translate(238.94 6.44)"><tspan xml:space="preserve">pos.  </tspan></text><text class="cls-13" transform="translate(238.94 14.62)">neg. </text><text class="cls-13" transform="translate(260 14.62)">inconsistent </text><text class="cls-13" transform="translate(259.92 6.44)">consistent </text><rect class="cls-14" y="2.11" width="4" height="4"/><text class="cls-15" transform="translate(7.19 5.88)">knitwear</text><rect class="cls-16" y="7.53" width="4" height="4"/><text class="cls-15" transform="translate(7.19 11.3)">sweater</text><rect class="cls-17" y="13.12" width="4" height="4"/><text class="cls-15" transform="translate(7.19 16.9)">others</text><rect class="cls-7" x="115.34" y="3.17" width="1.2" height="2.51"/><rect class="cls-7" x="115.34" y="13.81" width="2.4" height="2.51"/><line class="cls-6" x1="315.54" y1="6.83" x2="359.07" y2="6.83"/><text class="cls-9" transform="translate(295.01 8.14)">weight</text><line class="cls-10" x1="314.86" y1="12.12" x2="314.86" y2="3.01"/><path class="cls-11" d="M314.86,3.32l-.62.38v0l.4-1c.07-.35.15-.7.23-1,.08.35.15.7.23,1.05l.4,1v0Z"/><text class="cls-9" transform="translate(323.63 17)">1-d t-SNE </text><line class="cls-10" x1="314.82" y1="11.97" x2="360.12" y2="12.05"/><path class="cls-11" d="M359.81,12.05l-.37-.62h0l1,.4,1,.23-1,.24-1,.39h0Z"/><path class="cls-18" d="M316.74,2.24,320.07,5l3.14,1.78,2.36.74.65-1.9L327.88,10l1.35-6.49.14,4.12,1-.82.74.76,2-5V5L335.06,3l.29,2.92.46-3.12.66.62.66-1.26,1.36,4.22.91-3.54.83.23.21.85,2.37,2.86.7-1.09L344,4.59,346.64,2,346.91,4l.14-1.31,3,3.17.16-2.7L351.42,5l1.17-.67,2-.66.93,7,.68-1.41v.33l1.26-3.53.77-.28"/><path id="point-2782" class="cls-19" d="M326.27,7.5a.7.7,0,0,1-.7.7.7.7,0,0,1-.71-.7.71.71,0,0,1,.71-.71.7.7,0,0,1,.7.71"/><path id="point-459" class="cls-20" d="M326.93,5.6a.7.7,0,0,1-.71.7.7.7,0,0,1-.7-.7.7.7,0,0,1,.7-.71.71.71,0,0,1,.71.71"/><path id="point-4564" class="cls-21" d="M328.58,10a.7.7,0,0,1-.7.71.71.71,0,1,1,0-1.41.7.7,0,0,1,.7.7"/><path id="point-330" class="cls-22" d="M331.07,6.82a.71.71,0,0,1-.71.71.7.7,0,0,1-.7-.71.7.7,0,0,1,.7-.7.7.7,0,0,1,.71.7"/><path id="point-549" class="cls-23" d="M331.8,7.58a.7.7,0,0,1-.7.71.71.71,0,0,1-.71-.71.7.7,0,0,1,.71-.7.7.7,0,0,1,.7.7"/><path id="point-552" class="cls-24" d="M337.18,3.44a.71.71,0,0,1-.71.71.7.7,0,0,1-.7-.71.7.7,0,0,1,.7-.7.7.7,0,0,1,.71.7"/><path id="point-476" class="cls-25" d="M347.34,2a.7.7,0,0,1-.7.71.71.71,0,0,1-.71-.71.7.7,0,0,1,.71-.7.7.7,0,0,1,.7.7"/><path id="point-611" class="cls-26" d="M355.24,3.68a.7.7,0,0,1-.7.7.7.7,0,0,1-.71-.7.71.71,0,0,1,.71-.71.7.7,0,0,1,.7.71"/><path id="point-23370" class="cls-27" d="M356.85,9.3a.71.71,0,0,1-1.41,0,.71.71,0,1,1,1.41,0"/><path id="point-726" class="cls-28" d="M356.86,9.63a.7.7,0,0,1-.71.7.7.7,0,0,1-.7-.7.7.7,0,0,1,.7-.71.71.71,0,0,1,.71.71"/><path id="point-8826" class="cls-25" d="M317.45,2.24a.7.7,0,0,1-.71.7.7.7,0,0,1-.7-.7.7.7,0,0,1,.7-.71.71.71,0,0,1,.71.71"/><path id="point-26421" class="cls-29" d="M320.78,5a.71.71,0,0,1-.71.71.7.7,0,0,1-.7-.71.7.7,0,0,1,.7-.7.7.7,0,0,1,.71.7"/><path id="point-30006" class="cls-30" d="M329.94,3.52a.7.7,0,0,1-.71.7.7.7,0,0,1-.7-.7.7.7,0,0,1,.7-.71.71.71,0,0,1,.71.71"/><path id="point-5009" class="cls-31" d="M330.07,7.64a.7.7,0,0,1-.7.71.71.71,0,0,1-.71-.71.7.7,0,0,1,.71-.7.7.7,0,0,1,.7.7"/><path id="point-18069" class="cls-32" d="M333.82,2.59a.7.7,0,0,1-.7.71.71.71,0,0,1-.71-.71.7.7,0,0,1,.71-.7.7.7,0,0,1,.7.7"/><path id="point-9933" class="cls-33" d="M333.82,3.36a.7.7,0,0,1-.7.71.71.71,0,0,1-.71-.71.7.7,0,0,1,.71-.7.7.7,0,0,1,.7.7"/><path id="point-30105" class="cls-34" d="M333.82,5a.7.7,0,0,1-.7.7.7.7,0,0,1-.71-.7.71.71,0,0,1,.71-.71.7.7,0,0,1,.7.71"/><path id="point-32535" class="cls-35" d="M335.77,3a.71.71,0,0,1-.71.71.7.7,0,0,1-.7-.71.7.7,0,0,1,.7-.7.7.7,0,0,1,.71.7"/><path id="point-24969" class="cls-36" d="M336.05,5.94a.71.71,0,1,1-.7-.7.7.7,0,0,1,.7.7"/><path id="point-30866" class="cls-25" d="M337.83,2.18a.7.7,0,0,1-.7.7.7.7,0,0,1-.71-.7.71.71,0,0,1,.71-.71.7.7,0,0,1,.7.71"/><path id="point-5102" class="cls-37" d="M340.11,2.86a.71.71,0,0,1-.71.71.7.7,0,0,1-.7-.71.7.7,0,0,1,.7-.7.7.7,0,0,1,.71.7"/><path id="point-31555" class="cls-38" d="M341.14,3.94a.7.7,0,0,1-.7.71.71.71,0,0,1-.71-.71.7.7,0,0,1,.71-.7.7.7,0,0,1,.7.7"/><path id="point-24029" class="cls-39" d="M343.52,6.8a.7.7,0,0,1-.71.7.7.7,0,0,1-.7-.7.7.7,0,0,1,.7-.71.71.71,0,0,1,.71.71"/><path id="point-322" class="cls-40" d="M344.73,4.59a.71.71,0,0,1-.71.71.7.7,0,0,1-.7-.71.7.7,0,0,1,.7-.7.7.7,0,0,1,.71.7"/><path id="point-284" class="cls-41" d="M347.61,4a.7.7,0,0,1-.7.7.7.7,0,0,1-.71-.7.71.71,0,0,1,.71-.71.7.7,0,0,1,.7.71"/><path id="point-1675" class="cls-42" d="M347.76,2.73a.71.71,0,0,1-.71.71.71.71,0,1,1,.71-.71"/><path id="point-31685" class="cls-43" d="M350.72,5.9a.7.7,0,0,1-.7.71.71.71,0,0,1-.71-.71.7.7,0,0,1,.71-.7.7.7,0,0,1,.7.7"/><path id="point-179" class="cls-44" d="M350.88,3.2a.71.71,0,0,1-1.41,0,.71.71,0,1,1,1.41,0"/><path id="point-31461" class="cls-45" d="M353.3,4.34a.71.71,0,1,1-1.41,0,.71.71,0,0,1,1.41,0"/><path id="point-44" class="cls-46" d="M356.17,10.71a.7.7,0,0,1-.7.71.71.71,0,0,1-.71-.71.7.7,0,0,1,.71-.7.7.7,0,0,1,.7.7"/><path id="point-271" class="cls-40" d="M356.85,4.59a.7.7,0,0,1-.7.71.71.71,0,0,1-.71-.71.7.7,0,0,1,.71-.7.7.7,0,0,1,.7.7"/><path id="point-26082" class="cls-47" d="M358.12,6.1a.7.7,0,0,1-.71.7.7.7,0,0,1-.7-.7.7.7,0,0,1,.7-.71.71.71,0,0,1,.71.71"/><path id="point-4833" class="cls-48" d="M358.88,5.82a.7.7,0,0,1-.7.7.7.7,0,0,1-.71-.7.71.71,0,0,1,.71-.71.7.7,0,0,1,.7.71"/><path id="point-34514" class="cls-49" d="M324.26,7.4l-.63-.64.63-.63-.42-.42-.63.63-.64-.63-.42.42.63.63-.63.64.42.42.64-.63.63.63Z"/><path id="point-19616" class="cls-50" d="M336.86,3.45l-.63-.63.63-.64-.42-.42-.63.64-.64-.64-.42.42.63.64-.63.63.42.43.64-.64.63.64Z"/><path id="point-18896" class="cls-51" d="M339.55,7l-.64-.64.64-.63-.42-.42-.64.63-.63-.63-.43.42.64.63-.64.64.43.42.63-.63.64.63Z"/><path id="point-46" class="cls-52" d="M341.29,3.73l-.64-.64.64-.63L340.86,2l-.63.64L339.59,2l-.42.43.63.63-.63.64.42.42.64-.64.63.64Z"/><path id="point-1331" class="cls-53" d="M344.56,6.35l-.63-.64.63-.63-.42-.43-.63.64-.64-.64-.42.43.63.63-.63.64.42.42.64-.63.63.63Z"/><path id="point-29133" class="cls-54" d="M352.48,5.65,351.84,5l.64-.63L352.06,4l-.64.63L350.79,4l-.43.42L351,5l-.64.64.43.42.63-.63.64.63Z"/><rect class="cls-55" x="359.28" y="5.96" width="10.51" height="1.81" transform="translate(371.4 -357.68) rotate(90)"/><text class="cls-13" transform="translate(367.66 13.45)">very neg.</text><text class="cls-13" transform="translate(367.58 5.15)">very pos.</text><path class="cls-56" d="M62.12,5.58l10.77.56L87.35,3.47,98.59,5.75l8-.4"/><path id="point-27481" class="cls-7" d="M60.94,4.4V6.77h2.37V4.4Z"/><path id="point-21280" class="cls-7" d="M71.7,5V7.32h2.37V5Z"/><path id="point-29313" class="cls-7" d="M86.16,2.29V4.66h2.37V2.29Z"/><path id="point-7834" class="cls-7" d="M97.4,4.57V6.94h2.37V4.57Z"/><path class="cls-57" d="M255.38,4.84a1.13,1.13,0,1,1-1.12-1.12,1.12,1.12,0,0,1,1.12,1.12"/><path class="cls-58" d="M258.83,4.84a1.12,1.12,0,1,1-1.12-1.12,1.12,1.12,0,0,1,1.12,1.12"/><path class="cls-59" d="M255.38,13.69l-.67-.67.67-.68-.45-.45-.67.68-.68-.68-.45.45.68.68-.68.67.45.45.68-.67.67.67Z"/><path class="cls-60" d="M258.94,13.69l-.68-.67.68-.68-.45-.45-.68.68-.67-.68-.45.45.67.68-.67.67.45.45.67-.67.68.67Z"/><path class="cls-57" d="M234,4.84a1.13,1.13,0,1,1-1.13-1.12A1.13,1.13,0,0,1,234,4.84"/><path class="cls-58" d="M234,13a1.13,1.13,0,1,1-1.13-1.13A1.13,1.13,0,0,1,234,13"/><path class="cls-57" d="M237.42,5.52l-.67-.68.67-.67L237,3.72l-.67.67-.68-.67-.45.45.68.67-.68.68.45.45.68-.68L237,6Z"/><path class="cls-58" d="M237.42,13.69l-.67-.67.67-.68-.45-.45-.67.68-.68-.68-.45.45.68.68-.68.67.45.45.68-.67.67.67Z"/></g></g></svg>