<?xml version="1.0" standalone="no"?><!DOCTYPE svg PUBLIC "-//W3C//DTD SVG 1.1//EN" "http://www.w3.org/Graphics/SVG/1.1/DTD/svg11.dtd"><svg t="1663765382918" class="icon" viewBox="0 0 1024 1024" version="1.1" xmlns="http://www.w3.org/2000/svg" p-id="12056" xmlns:xlink="http://www.w3.org/1999/xlink" width="200" height="200"><path d="M210.810565 0.01088c-33.279646 0-63.615324 6.015936-93.951002 21.119775-18.175807 9.087903-24.319742 33.279646-9.087903 48.383486l103.038905 102.65491-36.351614 36.287614-103.038905-102.718908a27.519708 27.519708 0 0 0-21.247774-9.087904c-12.159871 0-21.247774 6.079935-27.263711 18.175807a211.837749 211.837749 0 0 0 39.359582 244.6694c42.431549 42.239551 94.015001 60.351359 148.542422 60.351359 24.319742 0 48.511485-3.007968 69.759259-12.031872l336.444425 335.292437c-27.26371 75.519198-9.087903 160.062299 48.511485 220.477658 42.431549 42.239551 93.951002 60.415358 148.478422 60.415358 33.407645 0 63.679323-6.015936 94.079-21.119776 18.111808-9.087903 24.191743-33.279646 9.023904-48.383486l-103.038905-102.654909 36.351614-36.287614 103.038905 102.718908a27.519708 27.519708 0 0 0 21.247774 9.087904c12.159871 0 21.247774-6.079935 27.263711-18.175807a211.837749 211.837749 0 0 0-39.359582-244.6694c-42.431549-42.239551-94.015001-60.351359-148.542422-60.351359-24.319742 0-48.511485 3.007968-72.767227 12.031872L404.920502 280.967895c27.26371-75.519198 9.087903-160.062299-48.511484-220.477658A204.541827 204.541827 0 0 0 210.810565 0.01088z m-39.423581 271.869111a59.967363 59.967363 0 0 0 42.495548-18.111807l36.351614-36.287615a58.239381 58.239381 0 0 0 0-84.543101L180.474887 63.370207c9.151903 0 18.239806-3.007968 27.32771-3.007968 39.423581 0 78.783163 15.10384 106.110872 45.311518 42.431549 42.239551 54.527421 102.718909 36.351614 157.054332-9.087903 21.119776-3.007968 45.311519 15.167839 63.423326l336.444425 335.356436c12.159871 12.031872 27.32771 18.047808 42.431549 18.047809 6.079935 0 15.167839 0 21.247775-3.007968a142.07849 142.07849 0 0 1 51.519452-9.023904c39.423581 0 78.847162 15.10384 106.110873 45.311518 36.351614 36.223615 51.519453 84.543102 42.431549 132.862588l-69.759259-69.439262a59.967363 59.967363 0 0 0-42.36755-18.111807 59.967363 59.967363 0 0 0-42.495548 18.111807l-36.351614 36.223615a59.519368 59.519368 0 0 0-18.175807 42.239552 59.519368 59.519368 0 0 0 18.175807 42.367549l69.759259 69.439263c-9.151903 0-18.239806 3.007968-27.32771 3.007968-39.423581 0-78.783163-15.10384-106.110872-45.311519a151.806387 151.806387 0 0 1-36.351614-157.054331c9.087903-21.119776 3.007968-45.311519-15.167839-63.359327L323.001373 368.454965a59.967363 59.967363 0 0 0-42.431549-18.111807c-6.079935 0-12.159871 0-21.247775 3.007968a142.07849 142.07849 0 0 1-51.519452 9.087903c-39.423581 0-78.847162-15.10384-106.110873-45.311518-36.351614-36.287614-51.519453-84.607101-42.431549-132.926588l69.759259 69.503261c12.095871 12.031872 27.26371 18.111808 42.36755 18.111808z" p-id="12057"></path><path d="M318.009426 563.972888a58.623377 58.623377 0 0 0-41.535559 17.791811l-213.757729 213.693729a57.40739 57.40739 0 0 0 0 83.135117l83.199116 83.071117a58.623377 58.623377 0 0 0 41.535559 17.791811 58.623377 58.623377 0 0 0 41.535559-17.791811l213.757729-213.693729a57.40739 57.40739 0 0 0 0-83.135117L359.480985 581.764699c-8.895905-11.903874-23.679748-17.791811-41.535558-17.791811z m-127.614644 356.156216L107.323664 836.993987 321.017394 623.364257l83.071117 83.135116-213.693729 213.69373z m721.272336-848.886981l41.535559 41.599558-103.870896 103.870896-20.799779-20.799779-20.799779-20.799779 103.934895-103.870896z m0-71.231243a26.943714 26.943714 0 0 0-20.799779 8.959905l-145.406455 145.406455a28.671695 28.671695 0 0 0 0 41.535558l20.73578 20.799779-145.406455 145.406455a28.671695 28.671695 0 0 0 0 41.599558c5.951937 5.887937 14.847842 8.831906 20.73578 8.831907a32.063659 32.063659 0 0 0 20.799779-8.895906l145.406455-145.406455 20.799779 20.73578c5.951937 5.951937 14.847842 8.959905 20.799779 8.959905a32.063659 32.063659 0 0 0 20.735779-8.959905l145.470455-145.406455a28.671695 28.671695 0 0 0 0-41.599558L932.402898 8.970785C929.458929 2.954849 920.563024 0.01088 911.667118 0.01088z" p-id="12058"></path></svg>